HIERARCHY
ROOT Hips
{
	OFFSET -3.958830 18.904000 13.208200
	CHANNELS 6 Xposition Yposition Zposition Zrotation Yrotation Xrotation 
	JOINT LHipJoint
	{
		OFFSET 0.000000 0.000000 0.000000
		CHANNELS 3 Zrotation Yrotation Xrotation
		JOINT LeftUpLeg
		{
			OFFSET 1.800000 -1.400000 0.085000
			CHANNELS 3 Zrotation Yrotation Xrotation
			JOINT LeftLeg
			{
				OFFSET 2.215000 -6.000000 0.000000
				CHANNELS 3 Zrotation Yrotation Xrotation
				JOINT LeftFoot
				{
					OFFSET 2.500000 -6.900000 0.000000
					CHANNELS 3 Zrotation Yrotation Xrotation
					JOINT LeftToeBase
					{
						OFFSET 0.200000 -0.500000 1.950000
						CHANNELS 3 Zrotation Yrotation Xrotation
						End Site
						{
							OFFSET 0.000000 0.000000 0.000000
						}
					}
				}
			}
		}
	}
	JOINT RHipJoint
	{
		OFFSET 0.000000 0.000000 0.000000
		CHANNELS 3 Zrotation Yrotation Xrotation
		JOINT RightUpLeg
		{
			OFFSET -1.800000 -1.400000 0.085000
			CHANNELS 3 Zrotation Yrotation Xrotation
			JOINT RightLeg
			{
				OFFSET -2.215000 -6.000000 0.000000
				CHANNELS 3 Zrotation Yrotation Xrotation
				JOINT RightFoot
				{
					OFFSET -2.500000 -6.900000 0.000000
					CHANNELS 3 Zrotation Yrotation Xrotation
					JOINT RightToeBase
					{
						OFFSET -0.200000 -0.500000 1.950000
						CHANNELS 3 Zrotation Yrotation Xrotation
						End Site
						{
							OFFSET 0.000000 0.000000 0.000000
						}
					}
				}
			}
		}
	}
	JOINT LowerBack
	{
		OFFSET 0.000000 0.000000 0.000000
		CHANNELS 3 Zrotation Yrotation Xrotation
		JOINT Spine
		{
			OFFSET -0.087000 1.940000 -0.288900
			CHANNELS 3 Zrotation Yrotation Xrotation
			JOINT Spine1
			{
				OFFSET 0.000000 1.950000 0.060000
				CHANNELS 3 Zrotation Yrotation Xrotation
				JOINT Neck
				{
					OFFSET 0.000000 0.000000 0.000000
					CHANNELS 3 Zrotation Yrotation Xrotation
					JOINT Neck1
					{
						OFFSET 0.000000 1.600000 0.340000
						CHANNELS 3 Zrotation Yrotation Xrotation
						JOINT Head
						{
							OFFSET 0.000000 1.667000 -0.240000
							CHANNELS 3 Zrotation Yrotation Xrotation
							End Site
							{
								OFFSET 0.000000 0.000000 0.000000
							}
						}
					}
				}
				JOINT LeftShoulder
				{
					OFFSET 0.000000 0.000000 0.000000
					CHANNELS 3 Zrotation Yrotation Xrotation
					JOINT LeftArm
					{
						OFFSET 2.700000 1.550000 -0.730000
						CHANNELS 3 Zrotation Yrotation Xrotation
						JOINT LeftForeArm
						{
							OFFSET 5.450000 0.000000 0.000000
							CHANNELS 3 Zrotation Yrotation Xrotation
							JOINT LeftHand
							{
								OFFSET 3.450000 0.000000 0.000000
								CHANNELS 3 Zrotation Yrotation Xrotation
								JOINT LeftHandIndex1
								{
									OFFSET 0.750000 0.000000 0.000000
									CHANNELS 3 Zrotation Yrotation Xrotation
									End Site
									{
										OFFSET 0.000000 0.000000 0.000000
									}
								}
							}
						}
					}
				}
				JOINT RightShoulder
				{
					OFFSET 0.000000 0.000000 0.000000
					CHANNELS 3 Zrotation Yrotation Xrotation
					JOINT RightArm
					{
						OFFSET -2.700000 1.550000 -0.730000
						CHANNELS 3 Zrotation Yrotation Xrotation
						JOINT RightForeArm
						{
							OFFSET -5.450000 0.000000 0.000000
							CHANNELS 3 Zrotation Yrotation Xrotation
							JOINT RightHand
							{
								OFFSET -3.450000 0.000000 0.000000
								CHANNELS 3 Zrotation Yrotation Xrotation
								JOINT RightHandIndex1
								{
									OFFSET -0.750000 0.000000 0.000000
									CHANNELS 3 Zrotation Yrotation Xrotation
									End Site
									{
										OFFSET 0.000000 0.000000 0.000000
									}
								}
							}
						}
					}
				}
			}
		}
	}
}
MOTION
Frames: 12
Frame Time: 0.016667
-3.462310 17.097880 -3.749650 -3.072075 9.948851 23.735675 -15.485470 11.189074 5.097706 20.539480 -4.239142 -42.647797 -10.208950 6.367972 13.111801 -0.306147 4.095998 2.783180 0.442200 0.522030 0.300790 18.194775 -9.426624 3.054242 -22.508785 3.398406 -29.185887 7.257035 -3.006259 5.621144 -0.106523 -2.345566 3.235597 0.336150 -0.158230 0.073810 -3.139531 -1.274696 -8.806107 3.108946 5.948952 24.755403 4.532305 6.731600 1.355999 -1.087670 -4.918198 -12.440353 -7.003479 -2.263095 20.789107 2.929620 -1.614400 -29.160890 3.316378 -25.872115 4.395485 15.050480 -16.749109 -3.439187 101.741001 -71.227968 -79.447825 -3.035895 0.964561 0.319270 -0.195300 0.254610 0.030680 -0.337546 34.846937 3.755605 4.981473 27.165599 -11.137174 -35.401594 86.645095 -30.208827 1.760185 -0.839774 0.015420 0.196610 -0.094900 -0.064400 
-3.498820 17.009120 -3.755050 -2.427012 10.499444 23.541593 -15.472139 11.215393 5.132287 20.453129 -4.393732 -42.978085 -10.413769 6.626131 14.061496 -0.274022 4.195515 2.753902 0.444540 0.530960 0.276590 18.219375 -9.446651 2.977862 -22.965156 3.203401 -29.486296 7.485674 -3.412284 7.605395 -0.095483 -2.444291 3.196850 0.337060 -0.144630 0.076830 -3.197727 -1.369251 -8.753920 3.201070 5.423966 24.453474 4.227050 6.185326 0.878770 -1.673228 -5.755113 -11.665375 -8.388814 -2.760736 20.218027 3.142240 -2.704200 -28.525640 4.964079 -26.049590 2.306452 15.430518 -16.449822 -6.783922 87.913613 -73.059383 -59.201011 -2.549961 0.661826 0.286270 -0.189560 0.239450 0.045300 -0.878917 35.282525 4.086306 4.303940 25.528123 -12.967376 -60.502948 86.151931 -48.321104 1.379361 0.709359 0.034420 0.189940 -0.097970 -0.038490 
-3.532040 16.923220 -3.758930 -1.879058 10.778686 22.871224 -15.472330 11.305790 5.164887 20.500983 -4.450368 -43.065846 -10.753053 7.098668 15.587660 -0.264405 4.410333 2.673144 0.456730 0.543750 0.280670 18.224175 -9.463238 2.886244 -23.428471 3.009972 -29.699967 7.617954 -3.911085 10.051613 -0.096619 -2.568341 3.141124 0.349900 -0.150800 0.074070 -3.208879 -1.575705 -8.716931 3.085062 4.978053 24.514070 4.107721 5.671644 1.359662 -2.032842 -6.298878 -11.486117 -9.395508 -2.947046 19.880212 2.800100 -3.124590 -28.509030 5.879188 -25.615768 1.202633 16.172946 -17.112612 -8.156071 79.202874 -72.176234 -49.545219 -2.659565 1.322129 0.282060 -0.192640 0.237530 0.048670 -0.977463 34.822510 5.057094 3.566411 25.145932 -12.012844 -78.290376 81.306918 -57.497514 0.937102 2.235283 0.036260 0.191870 -0.101700 -0.037860 
-3.575690 16.843800 -3.762590 -1.479894 10.858150 21.398875 -15.477092 11.428741 5.191253 20.775095 -4.371310 -43.032110 -10.853468 7.868372 18.237916 -0.239883 4.782966 2.537470 0.467780 0.554730 0.284600 18.215595 -9.528378 2.775635 -23.867574 2.791606 -29.527772 7.901960 -4.616566 13.207288 -0.109927 -2.798473 3.050836 0.360760 -0.151520 0.069140 -3.198741 -1.752685 -8.699905 2.986543 4.694318 25.535489 4.057823 5.397132 2.376136 -2.354275 -6.864298 -11.865257 -10.455948 -3.025451 19.813909 2.640810 -3.510370 -28.501510 6.120970 -25.451125 0.636670 16.809167 -17.585951 -8.925455 74.160197 -70.327282 -44.147339 -2.790065 1.731914 0.282700 -0.197110 0.237830 0.055210 -0.459692 34.860312 6.610841 2.622891 24.679630 -10.462035 -87.764677 75.880967 -62.295956 0.969091 2.410068 0.034730 0.202680 -0.105870 -0.035480 
-3.618150 16.763330 -3.752820 -1.171544 10.691361 20.061651 -15.509450 11.497439 5.254949 21.501223 -4.248772 -43.165967 -11.192889 8.861493 21.122810 -0.198956 5.299404 2.346065 0.476260 0.563340 0.292020 18.204562 -9.507182 2.686617 -24.343898 2.628584 -29.960068 8.226376 -5.515104 17.023282 -0.135477 -3.131752 2.920588 0.368020 -0.155880 0.068320 -3.134033 -1.980140 -8.704297 2.629881 4.710150 26.053798 4.496195 5.282736 3.621471 -2.728011 -7.342753 -12.362333 -11.430938 -3.153710 19.878808 2.301720 -3.804930 -28.594820 5.762769 -25.407801 -0.432174 16.213311 -20.285661 -9.367028 71.572190 -70.852082 -42.785227 -2.809203 1.787684 0.284900 -0.200340 0.241290 0.055370 0.764271 34.942829 9.093067 2.957690 24.528975 -7.253044 -99.500308 69.322667 -73.676828 1.535157 1.865160 0.035560 0.209590 -0.106880 -0.035820 
-3.652780 16.693190 -3.746060 -0.772665 10.508759 18.334437 -15.532835 11.575018 5.275582 21.731114 -4.219762 -43.396124 -10.851597 9.917552 24.871751 -0.156439 5.880472 2.141116 0.460660 0.531780 0.302200 18.200192 -9.467216 2.646975 -25.200594 2.480394 -30.297832 8.721364 -6.605612 20.952841 -0.173593 -3.608838 2.740575 0.355190 -0.156620 0.064670 -3.092614 -2.215164 -8.724947 2.643113 4.548695 27.015874 4.623123 5.211453 4.307489 -2.989336 -8.108072 -12.661558 -13.001558 -3.437370 20.354038 1.257500 -4.216660 -28.367100 4.403039 -26.053489 -1.373685 14.615016 -23.165795 -9.633926 71.123749 -74.460399 -45.317951 -2.745297 1.523118 0.297240 -0.200970 0.239070 0.042490 2.748829 35.882701 10.859712 5.168213 23.956405 -6.299192 -104.327913 67.006427 -81.052235 1.917142 1.243679 0.020690 0.221600 -0.094590 -0.046950 
-3.686990 16.618000 -3.721020 -0.599569 10.162995 16.051994 -15.551478 11.647288 5.261229 22.300409 -4.042678 -42.981804 -10.636052 11.104376 28.700262 -0.103112 6.558624 1.888657 0.481910 0.551950 0.329390 18.199884 -9.432694 2.612048 -25.994138 2.318361 -30.335577 9.214552 -7.879902 25.190326 -0.254908 -4.217243 2.506547 0.372090 -0.175460 0.063140 -3.059705 -2.430637 -8.763896 2.811299 4.192577 27.629447 4.813286 4.917696 5.364304 -3.361074 -8.588434 -12.567247 -14.436647 -3.185178 21.566214 0.653300 -4.157780 -28.551810 2.810121 -27.158423 -2.111920 11.051725 -26.625272 -9.692546 65.022253 -78.317043 -44.532370 -2.789349 1.625937 0.317740 -0.212550 0.256930 0.037550 5.053614 36.803505 11.804881 9.268994 24.175187 -6.278215 -103.188385 68.887602 -81.456825 1.882163 1.786867 0.017430 0.233140 -0.098450 -0.058600 
-3.720760 16.528260 -3.675100 -0.492972 9.660055 13.809839 -15.565897 11.714048 5.225461 23.036502 -3.830401 -42.142192 -10.442546 12.263451 32.225993 -0.040644 7.236072 1.640711 0.509450 0.579610 0.359220 18.202066 -9.427479 2.565398 -26.427146 2.146283 -30.435705 8.906639 -9.066905 29.762389 -0.353821 -4.862566 2.267599 0.395830 -0.189620 0.062270 -3.033168 -2.598004 -8.805810 2.865602 3.816685 27.493397 4.999847 4.521505 6.074239 -3.732874 -8.784403 -11.977223 -15.556595 -2.446309 23.174897 0.151650 -3.619610 -28.194040 -0.281839 -28.470273 -1.735172 5.890778 -30.010497 -8.401871 49.892101 -80.167727 -36.144796 -3.020290 2.330562 0.334160 -0.216030 0.271280 0.037540 8.776098 37.469005 11.086461 16.075504 24.339789 -9.728743 -91.140667 78.309787 -71.903850 1.210353 3.708308 0.012830 0.242730 -0.106900 -0.072520 
-3.761090 16.436570 -3.614900 -0.452531 9.327561 11.474419 -15.565264 11.746033 5.187290 24.067637 -3.589637 -40.837569 -10.662283 13.389151 35.060337 0.032639 7.869007 1.407468 0.534510 0.608550 0.385240 18.207544 -9.482820 2.505783 -26.676391 1.972478 -30.076290 8.366039 -10.189671 34.186496 -0.469833 -5.534770 2.023897 0.419860 -0.202710 0.060940 -3.033938 -2.616243 -8.862135 3.301285 3.518703 27.094144 5.142344 4.337914 7.626710 -4.142714 -8.864264 -12.232492 -16.633823 -1.099957 25.530552 -0.186900 -2.647670 -27.194230 -3.803619 -30.089108 -1.098416 -0.309577 -32.842424 -6.393719 29.603828 -78.000142 -21.103251 -3.169594 2.873293 0.344290 -0.216080 0.283880 0.035730 12.950484 38.375486 11.791140 22.322680 21.538181 -14.970345 -46.459509 84.675781 -40.695355 1.610875 -0.143704 0.010560 0.246220 -0.114590 -0.085030 
-3.798410 16.338050 -3.540760 -0.631359 8.125664 8.917130 -15.554687 11.891684 5.123908 25.493394 -3.335034 -38.546690 -11.081060 14.587937 37.598237 0.141414 8.509919 1.182722 0.537350 0.608550 0.393410 18.200955 -9.548623 2.433341 -26.450392 1.731749 -29.756143 7.060648 -10.933393 38.420335 -0.574341 -6.111542 1.829620 0.421060 -0.204850 0.059260 -3.032622 -2.781442 -8.926251 3.746685 2.855522 26.393275 5.105153 3.810340 9.370448 -4.381195 -9.382283 -13.126080 -18.993163 0.794364 28.185179 -0.797530 -1.760640 -25.127620 -8.135899 -30.882692 -0.502556 -7.156630 -34.282589 -4.412524 9.097495 -71.175909 -5.461441 -3.231656 3.123872 0.342750 -0.209940 0.284840 0.034340 17.777166 38.176275 13.705613 27.439026 21.895943 -13.453202 -17.550023 80.671312 -18.068728 1.827559 -1.209438 0.010230 0.242800 -0.115310 -0.089810 
-3.842020 16.243990 -3.456000 -0.450871 7.019283 6.626168 -15.560001 12.045105 5.065391 26.742614 -3.314262 -36.227028 -11.530677 15.657243 39.759657 0.261325 9.044816 0.996741 0.536990 0.601370 0.405550 18.175485 -9.609443 2.357046 -26.451086 1.349009 -29.365793 5.492890 -11.464777 42.277784 -0.684795 -6.631774 1.657028 0.409270 -0.222370 0.055520 -2.981360 -2.974862 -8.985777 3.381984 2.237820 25.479397 4.936224 3.226789 10.174960 -4.266272 -9.504621 -13.897625 -20.997885 3.075212 31.549641 -1.137180 -0.565390 -23.103470 -13.173690 -30.990377 0.441297 -13.969676 -34.540402 -2.635098 -1.977595 -60.064348 1.804209 -3.242212 3.151270 0.352750 -0.217680 0.296110 0.029460 22.681337 37.161329 14.852580 32.716565 21.758981 -12.762118 -1.810102 74.626515 -6.419955 1.903742 -1.499603 0.013820 0.227980 -0.120990 -0.098780 
-3.884930 16.149810 -3.356880 -0.348047 5.443095 4.591686 -15.551441 12.207119 4.975531 28.204348 -3.233144 -32.961625 -12.822845 16.722216 40.447904 0.379600 9.467795 0.859308 0.507570 0.561530 0.401180 18.159956 -9.689160 2.274550 -26.086349 0.951807 -29.244729 3.322595 -11.574902 45.944154 -0.776066 -7.074137 1.523579 0.378330 -0.216480 0.053760 -2.957989 -3.129848 -9.003641 3.076939 1.575926 24.055774 4.122182 2.635690 10.493990 -4.060262 -9.138342 -14.453647 -22.204759 5.613687 34.920910 -1.424050 1.241670 -20.266210 -18.097593 -30.561516 1.397325 -18.924554 -34.584264 -0.850986 -2.520710 -47.020416 1.918631 -3.316114 3.038571 0.351440 -0.203500 0.290120 0.019800 27.191553 35.291017 15.589395 38.264245 19.516881 -12.959679 5.124748 69.451327 -2.430205 1.940122 -1.596423 0.007930 0.210330 -0.113660 -0.108210 
